<svg width="49" height="47" viewBox="0 0 49 47" fill="none" xmlns="http://www.w3.org/2000/svg">
<path d="M4.74401 19.4025C10.7556 18.7729 14.1593 18.7149 20.2759 19.0038V19.4025C11.9791 20.0322 7.54461 20.6789 0 22.3261L3.63926 33.7992C6.98214 38.9817 9.33765 41.5512 14.882 45.1838C10.9126 41.2166 9.00808 38.826 7.08355 33.7992C5.96045 29.8614 5.45239 27.6205 4.74401 23.5664C11.0254 21.9356 14.6301 21.1194 21.2507 19.8897V20.4213C15.9033 21.9239 12.9483 22.8796 7.79841 24.8954L9.48806 33.7992C11.2794 37.2217 12.4903 39.0651 15.1419 42.1715C12.9701 39.1865 12.1004 37.3885 11.5676 33.7992L10.7878 25.427L21.6406 20.7314L21.9005 21.2187C19.5076 22.2287 18.3668 22.8631 16.3767 24.0094V29.5024C19.012 32.2054 20.8286 33.4008 24.8249 34.8181C28.4342 32.8008 30.2117 31.6271 32.4284 29.3695L32.9483 24.0094L27.4894 21.2187V20.7314L38.3422 25.5156C38.3606 32.5296 37.2501 36.2378 33.8581 42.5702L38.8621 35.6598C40.4645 31.609 40.9244 29.2445 41.3316 24.9397L27.7493 20.3327L27.9443 19.8454C34.6022 21.0835 38.2062 21.9135 44.3859 23.655C43.5914 33.4433 40.8105 38.5575 32.4284 47C37.8001 42.7412 40.3646 40.2413 44.4509 35.6598C47.0761 30.6436 47.9486 27.7086 49 22.3704C41.2993 20.5969 36.7258 19.9556 28.2042 19.3139L28.5292 18.6937L44.4509 19.4025C44.9064 14.7828 44.6088 12.3202 40.8117 8.68237C42.5785 12.3313 42.6603 14.2776 41.7215 17.6305C36.5561 17.5973 33.666 17.6979 28.5292 18.2064L28.2042 17.6305C31.446 16.4737 33.1998 15.7835 37.1074 15.0613C37.7238 8.80651 37.3058 5.40542 31.7785 0C34.774 5.22718 35.3984 8.2438 34.118 13.8209L27.7493 17.1433L26.8395 16.7446L28.8541 15.3713C27.999 14.5256 27.4455 14.1129 26.1897 13.5994C26.575 14.2295 26.7624 14.5963 26.8395 15.3713L26.0597 16.0801H22.8103L21.8355 15.3713C22.0626 14.5159 22.6766 14.0781 23.1353 13.5994C21.9087 13.8011 21.0764 14.4431 20.2759 15.3713L21.8355 16.7446L21.1857 17.1433L14.9469 13.8209C13.7236 8.83866 14.2849 6.12364 16.0517 1.32894C12.2056 5.56559 11.0203 8.40674 12.2175 15.0613C15.372 15.774 17.2285 16.3818 20.6658 17.7634L20.4708 18.2064C15.3917 17.6952 12.483 17.576 7.2135 17.5862C6.43926 14.1694 6.7596 12.2856 7.86337 8.94816C4.69766 12.344 3.9846 14.6203 4.74401 19.4025Z" fill="white"/>
</svg>
