<svg width="53" height="46" viewBox="0 0 53 46" fill="none" xmlns="http://www.w3.org/2000/svg">
<path fill-rule="evenodd" clip-rule="evenodd" d="M21.931 18.5994C15.3152 18.3167 11.6336 18.3734 5.13127 18.9896C4.30987 14.3092 5.08114 12.0814 8.50528 8.75778C7.31139 12.0242 6.96492 13.8679 7.80236 17.2121C13.502 17.202 16.6482 17.3187 22.1419 17.819L22.3528 17.3855C18.6349 16.0332 16.6267 15.4384 13.2148 14.7408C11.92 8.22788 13.202 5.44717 17.362 1.30066C15.451 5.99335 14.8439 8.6506 16.1671 13.5269L22.9151 16.7785L23.618 16.3883L21.931 15.0443C22.7969 14.1358 23.6973 13.5075 25.0239 13.3101C24.9275 13.4011 24.8247 13.4906 24.72 13.5819C24.2855 13.9605 23.8159 14.3697 23.618 15.0443L24.6724 15.738H28.187L29.0305 15.0443C28.9472 14.2857 28.7444 13.9268 28.3276 13.3101C29.6859 13.8127 30.2846 14.2166 31.2095 15.0443L29.0305 16.3883L30.0146 16.7785L36.9032 13.5269C38.2881 8.0684 37.6127 5.11596 34.3727 0C40.3512 5.29041 40.8033 8.61913 40.1366 14.7408C36.2596 15.3892 34.3429 16.0111 31.3462 16.9835L31.3454 16.9837C31.0753 17.0713 30.7965 17.1618 30.5066 17.2554L30.8581 17.819C36.4142 17.3213 39.5402 17.2229 45.1273 17.2554C46.1428 13.9738 46.0544 12.0689 44.1432 8.49764C48.2503 12.0581 48.5722 14.4682 48.0796 18.9896L30.8581 18.2959L30.5066 18.9029C39.7238 19.531 44.6707 20.1586 53 21.8944C51.8629 27.1191 50.9191 29.9917 48.0796 34.901C43.6597 39.3851 40.8858 41.8319 35.0756 46C44.142 37.737 47.1499 32.7317 48.0093 23.1517C41.3251 21.4472 37.4269 20.6349 30.2255 19.4232L30.0146 19.9001L44.7056 24.409C44.2652 28.6223 43.7678 30.9365 42.0345 34.901L36.622 41.6645C40.291 35.4668 41.4921 31.8375 41.4722 24.9727L29.7334 20.2903V20.7672L35.6379 23.4986L35.0756 28.7446C32.678 30.9542 30.7553 32.1028 26.8515 34.0773C22.5289 32.6901 20.564 31.5202 17.7135 28.8746V23.4986C19.8661 22.3766 21.1 21.7558 23.6883 20.7672L23.4072 20.2903L11.6684 24.886L12.5119 33.0801C13.0882 36.593 14.0289 38.3527 16.378 41.2743C13.51 38.2339 12.2002 36.4297 10.2626 33.0801L8.43501 24.3657C14.0054 22.3928 17.2015 21.4574 22.9854 19.9868V19.4665C15.8244 20.6701 11.9254 21.4689 5.13127 23.065C5.89749 27.0328 6.44702 29.2261 7.6618 33.0801C9.74344 37.9999 11.8034 40.3396 16.0968 44.2224C10.0999 40.6671 7.55211 38.1522 3.93634 33.0801L0 21.8511C8.16049 20.2389 12.957 19.606 21.931 18.9896V18.5994ZM20.6658 23.7587L22.3528 21.8944L19.2599 23.7587C19.4124 25.5057 19.5037 26.4496 19.6817 28.0509C21.9389 30.1334 23.4886 31.0885 26.8515 32.3431C29.9247 30.9633 31.4367 30.0698 33.3886 28.0509C33.7751 26.4511 33.8584 25.5017 33.8806 23.7587C32.832 22.9739 32.1754 22.5501 30.5769 21.8944L32.6154 23.7587C32.5046 25.042 32.3868 25.7551 32.0531 27.0104C30.5539 28.8743 29.2643 29.6259 26.2891 30.5221C23.6833 29.4859 22.5276 28.7081 20.947 27.0104C20.9106 26.6922 20.8737 26.4092 20.8391 26.1437C20.7357 25.3506 20.6526 24.7132 20.6658 23.7587Z" fill="white"/>
</svg>
