<svg width="29" height="20" viewBox="0 0 29 20" fill="none" xmlns="http://www.w3.org/2000/svg">
<path d="M11.1102 13.4688L18.6727 9.5625L11.1102 5.60938V13.4688ZM14.0008 0C15.7508 0 17.4409 0.0234375 19.0711 0.0703125C20.7013 0.117188 21.8966 0.166667 22.657 0.21875L23.7977 0.28125C23.8081 0.28125 23.8966 0.289062 24.0633 0.304688C24.2299 0.320312 24.3497 0.335938 24.4227 0.351562C24.4956 0.367188 24.618 0.390625 24.7898 0.421875C24.9617 0.453125 25.1102 0.494792 25.2352 0.546875C25.3602 0.598958 25.506 0.666667 25.6727 0.75C25.8393 0.833333 26.0008 0.934896 26.157 1.05469C26.3133 1.17448 26.4643 1.3125 26.6102 1.46875C26.6727 1.53125 26.7534 1.6276 26.8523 1.75781C26.9513 1.88802 27.1023 2.19271 27.3055 2.67188C27.5086 3.15104 27.6466 3.67708 27.7195 4.25C27.8029 4.91667 27.868 5.6276 27.9148 6.38281C27.9617 7.13802 27.9904 7.72917 28.0008 8.15625V10.9062C28.0112 12.4167 27.9174 13.9271 27.7195 15.4375C27.6466 16.0104 27.5164 16.5286 27.3289 16.9922C27.1414 17.4557 26.9747 17.776 26.8289 17.9531L26.6102 18.2188C26.4643 18.375 26.3133 18.513 26.157 18.6328C26.0008 18.7526 25.8393 18.8516 25.6727 18.9297C25.506 19.0078 25.3602 19.0729 25.2352 19.125C25.1102 19.1771 24.9617 19.2188 24.7898 19.25C24.618 19.2812 24.493 19.3047 24.4148 19.3203C24.3367 19.3359 24.2169 19.3516 24.0555 19.3672C23.894 19.3828 23.8081 19.3906 23.7977 19.3906C21.1831 19.5885 17.9174 19.6875 14.0008 19.6875C11.8445 19.6667 9.97214 19.6328 8.38359 19.5859C6.79505 19.5391 5.75078 19.5 5.25078 19.4688L4.48516 19.4062L3.92266 19.3438C3.54766 19.2917 3.2638 19.2396 3.07109 19.1875C2.87839 19.1354 2.61276 19.026 2.27422 18.8594C1.93568 18.6927 1.64141 18.4792 1.39141 18.2188C1.32891 18.1562 1.24818 18.0599 1.14922 17.9297C1.05026 17.7995 0.899219 17.4948 0.696094 17.0156C0.492969 16.5365 0.354948 16.0104 0.282031 15.4375C0.198698 14.7708 0.133594 14.0599 0.0867188 13.3047C0.0398438 12.5495 0.0111979 11.9583 0.00078125 11.5312V8.78125C-0.00963542 7.27083 0.0841146 5.76042 0.282031 4.25C0.354948 3.67708 0.485156 3.15885 0.672656 2.69531C0.860156 2.23177 1.02682 1.91146 1.17266 1.73438L1.39141 1.46875C1.53724 1.3125 1.68828 1.17448 1.84453 1.05469C2.00078 0.934896 2.16224 0.833333 2.32891 0.75C2.49557 0.666667 2.64141 0.598958 2.76641 0.546875C2.89141 0.494792 3.03984 0.453125 3.21172 0.421875C3.38359 0.390625 3.50599 0.367188 3.57891 0.351562C3.65182 0.335938 3.77161 0.320312 3.93828 0.304688C4.10495 0.289062 4.19349 0.28125 4.20391 0.28125C6.81849 0.09375 10.0841 0 14.0008 0Z" fill="white"/>
</svg>
