<svg width="25" height="20" viewBox="0 0 25 20" fill="none" xmlns="http://www.w3.org/2000/svg">
<path d="M24.625 2.375C23.9271 3.39583 23.0833 4.26562 22.0938 4.98438C22.1042 5.13021 22.1094 5.34896 22.1094 5.64062C22.1094 6.99479 21.9115 8.34635 21.5156 9.69531C21.1198 11.0443 20.5182 12.3385 19.7109 13.5781C18.9036 14.8177 17.9427 15.9141 16.8281 16.8672C15.7135 17.8203 14.3698 18.5807 12.7969 19.1484C11.224 19.7161 9.54167 20 7.75 20C4.92708 20 2.34375 19.2448 0 17.7344C0.364583 17.776 0.770833 17.7969 1.21875 17.7969C3.5625 17.7969 5.65104 17.0781 7.48438 15.6406C6.39062 15.6198 5.41146 15.2839 4.54688 14.6328C3.68229 13.9818 3.08854 13.151 2.76562 12.1406C3.10938 12.1927 3.42708 12.2188 3.71875 12.2188C4.16667 12.2188 4.60938 12.1615 5.04688 12.0469C3.88021 11.8073 2.91406 11.2266 2.14844 10.3047C1.38281 9.38281 1 8.3125 1 7.09375V7.03125C1.70833 7.42708 2.46875 7.64062 3.28125 7.67188C2.59375 7.21354 2.04688 6.61458 1.64062 5.875C1.23438 5.13542 1.03125 4.33333 1.03125 3.46875C1.03125 2.55208 1.26042 1.70312 1.71875 0.921875C2.97917 2.47396 4.51302 3.71615 6.32031 4.64844C8.1276 5.58073 10.0625 6.09896 12.125 6.20312C12.0417 5.80729 12 5.42188 12 5.04688C12 3.65104 12.4922 2.46094 13.4766 1.47656C14.4609 0.492188 15.651 0 17.0469 0C18.5052 0 19.7344 0.53125 20.7344 1.59375C21.8698 1.375 22.9375 0.96875 23.9375 0.375C23.5521 1.57292 22.8125 2.5 21.7188 3.15625C22.6875 3.05208 23.6562 2.79167 24.625 2.375Z" fill="white"/>
</svg>
